<?xml version="1.0" standalone="no"?>
<!DOCTYPE svg PUBLIC "-//W3C//DTD SVG 20010904//EN"
 "http://www.w3.org/TR/2001/REC-SVG-20010904/DTD/svg10.dtd">
<svg version="1.0" xmlns="http://www.w3.org/2000/svg"
 width="1024.000000pt" height="1024.000000pt" viewBox="0 0 1024.000000 1024.000000"
 preserveAspectRatio="xMidYMid meet">

<g transform="translate(0.000000,1024.000000) scale(0.100000,-0.100000)"
fill="#000000" stroke="none">
<path d="M9440 8446 c-113 -45 -243 -97 -290 -115 -47 -18 -98 -39 -115 -47
-16 -7 -106 -43 -200 -79 -389 -151 -405 -158 -405 -181 0 -12 10 -28 23 -37
l22 -15 -30 -7 c-16 -3 -47 -14 -68 -22 -29 -13 -42 -14 -62 -5 -32 15 -32 26
4 49 23 15 27 22 20 40 -10 26 -33 31 -185 36 -133 5 -173 20 -321 124 l-98
68 -107 4 c-62 2 -108 7 -108 13 0 22 -44 69 -77 83 -42 18 -43 18 -43 5 0 -5
9 -10 19 -10 33 0 66 -35 66 -70 0 -28 5 -34 40 -47 24 -9 69 -14 114 -13 64
1 72 0 60 -13 -27 -27 -60 -40 -72 -28 -21 21 -28 11 -10 -13 17 -22 20 -23
45 -10 32 17 115 18 155 3 33 -12 90 -64 108 -99 7 -14 16 -44 20 -67 5 -35
11 -43 28 -43 35 0 86 -37 104 -75 9 -20 22 -34 28 -31 6 2 36 9 68 16 80 16
153 -5 196 -57 27 -33 35 -37 70 -34 32 2 42 -2 59 -24 12 -15 24 -41 27 -59
4 -21 16 -37 36 -48 32 -19 38 -48 13 -72 -21 -22 -54 -29 -116 -24 -43 2 -56
-1 -74 -19 -35 -35 -154 -58 -179 -34 -6 5 -23 12 -40 15 -27 6 -32 3 -44 -25
-19 -43 -66 -69 -123 -69 -97 0 -163 101 -124 191 5 12 -10 24 -67 52 -68 34
-75 35 -110 23 -48 -16 -53 -23 -25 -31 19 -5 166 -65 177 -71 1 -2 0 -7 -3
-13 -7 -11 -76 16 -76 29 0 4 -12 7 -28 8 -40 1 -141 41 -160 63 -9 10 -22 19
-28 19 -6 0 -31 13 -55 30 -53 36 -59 37 -59 7 0 -62 -79 -122 -144 -110 -89
17 -116 165 -43 241 l31 32 -21 21 c-19 19 -23 20 -48 7 l-28 -15 24 -21 c34
-32 16 -38 -34 -12 l-44 24 -28 -22 c-35 -28 -41 -28 -70 4 -28 30 -32 54 -10
54 8 0 15 7 15 15 0 19 -3 19 58 -10 66 -32 73 -31 59 5 -6 17 -19 30 -28 30
-9 0 -33 11 -53 25 -34 23 -39 24 -59 10 -12 -8 -39 -15 -59 -15 -51 0 -106
49 -115 102 -5 33 -2 41 25 66 27 25 28 30 16 47 -21 28 -17 51 12 74 15 12
22 21 17 21 -14 0 -68 -59 -60 -66 3 -4 -8 -16 -26 -28 -44 -30 -80 -129 -65
-178 9 -30 5 -42 -45 -138 -30 -58 -64 -138 -76 -177 -12 -40 -23 -73 -25 -73
-1 0 -29 9 -61 20 -32 11 -66 20 -76 20 -42 0 -121 -23 -153 -45 -34 -23 -36
-23 -68 -7 -18 9 -69 19 -112 22 l-79 5 -14 47 c-15 53 -60 94 -95 85 -12 -4
-45 8 -84 28 -35 19 -80 37 -100 41 -34 6 -36 8 -29 38 16 75 18 106 5 106 -8
0 -10 -8 -6 -26 5 -17 0 -38 -15 -64 -18 -31 -29 -40 -60 -45 -65 -11 -51 -20
32 -22 65 -1 88 -7 129 -29 74 -41 125 -87 166 -155 26 -43 39 -58 47 -50 6 6
24 11 40 11 15 0 26 4 23 8 -8 14 130 -6 163 -22 30 -16 33 -15 84 14 74 41
127 47 202 22 50 -17 69 -19 105 -11 25 6 59 8 77 4 18 -3 33 -1 36 5 4 7 5 6
3 -1 -1 -6 15 -28 36 -48 20 -21 40 -51 43 -67 12 -54 14 -56 37 -48 13 4 51
10 86 13 l63 6 27 64 c15 35 32 63 37 63 14 -1 23 -38 24 -98 1 -49 4 -54 47
-89 31 -25 56 -59 75 -99 l28 -60 49 3 c27 1 65 -4 84 -12 38 -16 88 -73 88
-100 0 -9 14 -24 30 -34 36 -21 39 -54 9 -84 -20 -20 -29 -21 -99 -16 -68 5
-80 4 -95 -13 -39 -44 -149 -31 -187 21 -20 26 -57 51 -43 29 4 -7 -7 -9 -32
-6 -21 3 -62 8 -92 11 -66 7 -114 31 -163 80 l-37 38 -74 -7 c-53 -5 -87 -3
-118 8 -90 29 -110 29 -141 -1 -32 -31 -35 -43 -10 -43 13 0 14 -2 3 -9 -7 -5
-11 -14 -7 -19 9 -15 36 -3 36 16 0 13 20 14 163 8 l162 -7 35 -33 c57 -55
106 -76 198 -83 43 -4 52 -2 52 11 0 9 5 16 11 16 5 0 7 -4 4 -10 -4 -6 6 -10
22 -11 15 -1 -14 -9 -66 -18 -85 -16 -97 -21 -126 -53 -42 -46 -55 -118 -55
-314 0 -225 16 -407 40 -455 33 -63 63 -73 210 -65 205 10 456 33 497 46 123
38 143 67 150 218 3 59 0 163 -7 232 -7 69 -14 152 -16 185 -2 33 -6 67 -8 76
-2 12 8 22 35 32 l38 15 -5 -27 c-8 -39 18 -59 57 -44 16 6 27 8 24 3 -3 -5
-1 -10 4 -12 5 -1 12 -30 15 -63 4 -33 9 -67 11 -75 5 -18 48 -346 76 -580 10
-91 22 -186 25 -212 l6 -47 -53 -15 c-29 -9 -57 -16 -62 -16 -24 0 -79 -36
-92 -60 -20 -38 -25 -89 -30 -315 l-5 -201 31 -34 c17 -19 38 -45 48 -58 15
-21 29 -25 134 -33 111 -10 119 -9 146 10 16 12 36 21 45 21 9 0 34 9 56 20
22 11 52 20 67 20 43 -1 105 -33 136 -71 80 -98 97 -123 92 -137 -3 -7 2 -35
11 -60 11 -35 17 -101 20 -259 2 -116 7 -218 10 -226 3 -8 -4 -24 -17 -35 -15
-15 -20 -28 -15 -45 7 -31 -28 -150 -51 -168 -15 -13 -16 -9 -10 41 4 30 10
74 13 98 l7 42 -30 -6 -31 -6 6 181 c5 185 -11 386 -33 402 -5 4 -30 25 -55
47 -26 22 -60 42 -80 45 -30 5 -32 4 -16 -6 38 -25 67 -49 63 -53 -2 -3 8 -18
23 -34 32 -35 40 -66 41 -169 0 -42 4 -109 8 -149 4 -40 3 -76 -1 -78 -4 -3
-8 -40 -8 -82 0 -42 -5 -111 -11 -152 -6 -41 -13 -97 -17 -125 -6 -44 -11 -52
-47 -72 -77 -43 -253 -87 -335 -84 -35 1 -46 21 -55 94 -3 34 -22 121 -41 194
-19 73 -34 136 -34 140 0 5 26 9 58 9 88 1 157 42 182 109 11 30 11 30 -32
-11 -52 -49 -113 -69 -190 -60 -115 13 -178 16 -178 8 0 -17 -78 -51 -136 -60
-77 -13 -149 12 -205 70 -33 34 -39 47 -39 83 0 35 -4 44 -25 53 -13 6 -38 31
-56 54 -29 40 -31 47 -27 116 l3 72 -30 -1 c-16 -1 -41 -4 -55 -8 -29 -8 -73
10 -110 45 -14 13 -42 38 -63 55 -42 35 -83 100 -98 154 -8 29 -15 35 -37 36
-115 4 -238 -17 -260 -46 -21 -26 -45 -36 -62 -25 -33 21 -216 -80 -320 -177
-166 -154 -282 -396 -335 -699 -14 -78 -25 -154 -25 -170 0 -16 -7 -40 -16
-52 -14 -21 -22 -22 -135 -22 l-120 0 8 -72 c4 -40 7 -118 7 -173 -2 -121 -18
-167 -63 -183 -28 -10 -35 -8 -62 16 -26 23 -32 38 -38 87 -4 44 -10 60 -21
60 -8 0 -25 6 -37 13 -18 10 -23 22 -23 55 0 24 7 52 15 63 8 11 15 41 15 70
0 49 -2 52 -27 55 -16 2 -56 3 -90 1 l-63 -4 0 -31 c0 -84 -38 -147 -88 -147
-49 0 -92 71 -92 154 l0 28 -247 -6 c-137 -3 -328 -6 -425 -6 l-178 0 0 -27
c0 -76 -43 -153 -85 -153 -56 0 -78 45 -91 180 -6 68 -15 89 -36 90 -8 0 -2
-22 15 -57 6 -13 7 -26 3 -30 -12 -13 -212 -16 -234 -4 -16 8 -20 25 -26 99
-8 104 -50 285 -99 427 -35 99 -57 202 -57 263 0 25 4 32 20 32 12 0 28 13 40
33 26 42 26 57 -1 23 -23 -30 -36 -32 -59 -11 -15 14 -17 8 -17 -78 -1 -112
-16 -172 -48 -193 -48 -32 -91 7 -101 92 -10 90 -12 94 -43 94 -35 0 -41 -13
-41 -86 0 -45 -5 -59 -27 -83 -40 -44 -76 -49 -106 -17 -13 14 -28 40 -33 58
-9 30 -14 33 -51 36 -51 4 -58 19 -79 167 -10 72 -14 85 -29 85 -19 0 -28 17
-35 65 -7 58 -32 58 -60 0 -38 -79 -108 -105 -170 -63 -40 27 -59 71 -59 141
-1 32 -5 47 -14 47 -8 0 -22 9 -32 20 -21 23 -33 114 -16 124 19 12 13 22 -30
50 -27 19 -49 26 -64 22 -13 -3 -27 0 -34 7 -6 8 -23 12 -41 9 -18 -3 -30 0
-30 7 0 6 -10 11 -23 11 -41 0 -74 47 -81 115 -7 73 -12 105 -19 125 -9 29
-30 185 -30 222 1 21 11 54 23 74 26 41 94 94 122 94 11 0 34 11 51 24 18 13
53 26 78 29 41 6 48 4 52 -13 4 -14 13 -20 34 -19 l28 1 -25 8 -25 8 25 2 25
2 -25 7 c-14 4 -31 18 -39 32 -13 24 -12 29 9 60 18 25 19 30 6 19 -10 -8 -30
-32 -43 -53 -13 -21 -27 -36 -32 -33 -22 14 -177 -59 -208 -97 -15 -19 -35
-27 -93 -37 -189 -30 -373 -94 -481 -166 -156 -104 -229 -233 -268 -479 -6
-33 -15 -87 -21 -120 -5 -33 -10 -76 -10 -96 0 -36 -1 -37 -45 -43 -57 -9
-128 -57 -182 -124 -42 -52 -52 -72 -34 -72 5 0 43 32 85 71 67 62 82 72 122
77 26 3 49 0 53 -5 12 -19 87 -51 234 -98 l147 -47 -34 -47 c-43 -58 -121
-219 -138 -283 -11 -44 -11 -49 11 -72 29 -31 21 -63 -16 -68 -22 -2 -28 -11
-40 -50 -17 -61 -39 -72 -130 -69 -68 2 -72 1 -75 -21 -5 -36 -43 -36 -62 0
-14 27 -21 30 -75 34 -34 2 -64 7 -68 11 -11 12 -25 247 -18 326 3 41 11 83
17 94 8 16 5 24 -16 45 -14 14 -29 22 -33 18 -4 -4 -10 -70 -11 -147 -4 -133
-5 -139 -24 -139 l-21 0 20 -18 c14 -11 23 -36 28 -72 46 -362 105 -457 292
-466 40 -2 80 -7 88 -11 16 -9 34 -85 29 -125 -2 -24 0 -25 59 -24 70 1 128
-22 187 -73 19 -17 38 -31 43 -31 10 0 34 -55 47 -107 6 -24 12 -43 14 -43 2
0 19 6 38 14 18 8 65 16 104 17 90 3 147 -22 219 -96 59 -60 75 -99 75 -181 0
-44 3 -52 25 -62 13 -6 30 -20 36 -30 12 -19 13 -18 36 9 48 57 160 64 234 14
l38 -25 37 25 c20 14 47 25 60 25 17 0 29 10 43 38 25 50 88 106 136 122 55
18 170 8 223 -19 24 -12 45 -21 46 -19 1 2 15 24 29 50 30 52 93 107 147 129
21 8 70 14 125 14 81 0 97 -3 160 -33 38 -18 77 -40 87 -49 16 -14 21 -12 63
25 121 107 326 71 415 -73 11 -18 23 -60 26 -94 4 -33 8 -61 9 -61 1 0 19 7
38 15 44 18 125 19 180 3 59 -18 123 -83 139 -141 7 -29 19 -49 30 -53 27 -8
24 -60 -5 -79 -33 -21 -113 -34 -225 -37 -81 -1 -105 2 -146 20 -58 26 -56 26
-56 8 0 -21 -48 -74 -84 -93 -37 -20 -168 -23 -233 -4 -34 9 -48 9 -65 -1 -40
-22 -184 -16 -260 10 -55 19 -73 21 -105 13 -28 -8 -56 -7 -108 4 -65 14 -72
14 -110 -4 -49 -24 -125 -32 -176 -19 -34 9 -40 8 -66 -17 -36 -35 -103 -65
-156 -71 -87 -8 -204 49 -241 118 l-18 33 -116 0 c-133 1 -194 20 -200 63 -4
28 14 52 39 52 11 0 19 5 19 10 0 6 -15 4 -36 -5 -48 -20 -160 -20 -199 1 -26
13 -38 14 -81 4 -67 -16 -148 -9 -203 18 -39 19 -47 20 -75 8 -17 -7 -44 -19
-61 -26 -16 -7 -74 -15 -127 -18 l-96 -5 27 -23 c16 -13 39 -23 52 -22 44 2
60 -2 54 -12 -3 -6 -18 -10 -33 -11 l-27 -1 30 -9 c56 -19 110 -43 117 -54 22
-30 -5 -62 -72 -86 -32 -10 -45 -18 -32 -19 12 0 38 6 57 14 33 14 36 14 63
-13 18 -19 47 -32 82 -40 30 -7 66 -15 79 -18 20 -5 23 -3 18 11 -5 14 -3 15
12 6 11 -5 21 -14 23 -19 1 -5 23 -11 48 -15 25 -3 74 -10 110 -15 81 -12 208
-24 235 -23 11 1 52 -7 92 -18 53 -15 122 -21 260 -26 103 -4 191 -11 194 -16
3 -5 17 -4 33 2 15 5 42 10 59 11 32 0 32 0 7 11 -14 6 -104 11 -200 12 -96 2
-186 6 -201 9 -14 4 -53 8 -87 9 -34 2 -62 6 -62 9 0 6 -205 25 -237 22 -7 0
-11 3 -8 7 3 5 -12 6 -32 4 -21 -3 -45 0 -53 5 -12 8 -11 14 9 35 16 17 21 31
16 43 -6 17 -8 16 -15 -3 -12 -31 -61 -47 -127 -42 -39 3 -60 10 -69 23 -19
26 -18 33 15 66 24 24 38 29 76 29 25 0 60 -7 76 -16 l31 -16 -7 31 c-6 28 -4
31 19 31 22 0 26 -5 26 -27 0 -16 9 -42 19 -60 l20 -32 102 -3 c73 -2 107 1
121 10 27 19 91 6 119 -24 50 -54 261 -79 591 -72 176 5 219 8 246 23 63 33
137 46 277 50 228 6 435 -15 435 -46 0 -4 -21 -12 -47 -17 -43 -10 -39 -11 42
-7 50 2 135 5 191 5 97 0 101 1 100 22 -1 21 5 26 76 58 38 18 132 8 166 -17
39 -29 40 -58 4 -80 l-30 -18 97 -3 c96 -2 98 -2 112 24 14 28 63 54 99 54 16
0 20 7 20 38 0 20 11 61 25 90 l24 52 -53 0 c-29 0 -73 3 -97 6 -38 5 -48 2
-71 -21 -16 -14 -28 -21 -28 -16 0 6 11 18 24 27 32 20 36 50 14 96 -10 21
-18 39 -18 41 0 11 138 19 270 16 80 -2 186 -3 237 -4 50 0 95 -3 99 -8 4 -4
-8 -5 -27 -2 -23 3 -18 0 15 -9 27 -8 63 -25 80 -37 22 -17 31 -19 34 -9 3 7
17 37 32 66 l28 52 -24 23 c-66 62 -29 169 58 169 72 0 128 -48 128 -110 0
-28 2 -30 38 -30 33 0 40 5 65 44 82 130 209 183 376 157 129 -20 224 -87 285
-202 16 -30 30 -55 31 -57 1 -1 21 5 45 13 54 19 155 19 210 0 55 -19 60 -19
60 6 0 11 5 29 11 40 10 20 10 20 -16 3 -34 -22 -178 -14 -207 13 -30 27 -19
56 24 67 23 6 40 17 44 28 13 41 123 53 168 17 14 -11 26 -29 26 -40 0 -24 3
-24 48 5 53 34 147 50 209 35 66 -16 93 -31 137 -76 l37 -38 32 36 c33 38 71
61 118 73 15 3 42 20 60 38 25 25 43 33 69 33 29 0 43 9 80 47 35 37 54 48 89
54 34 5 47 13 60 36 32 59 81 116 111 129 16 8 30 17 30 21 0 12 109 9 132 -3
17 -9 23 -8 30 5 14 24 83 56 122 56 l34 0 0 69 c-1 102 17 126 113 160 87 31
114 47 175 103 24 22 50 38 58 35 14 -6 63 21 108 58 15 13 45 26 68 30 22 4
40 11 40 15 0 15 -85 -15 -155 -54 -36 -21 -65 -35 -65 -33 0 2 10 23 21 48
45 93 69 275 69 529 0 207 -9 285 -41 348 -38 72 -120 154 -193 191 -66 33
-66 33 -66 75 0 58 -47 443 -60 488 -6 20 -24 51 -41 69 -29 31 -32 42 -60
233 -16 111 -33 224 -39 251 -5 28 -21 138 -35 245 -14 107 -28 205 -31 217
-5 17 1 25 25 37 43 23 47 21 43 -24 -4 -39 -4 -40 29 -40 55 0 107 19 146 53
l36 32 -7 -39 c-7 -35 -6 -38 11 -32 10 4 39 12 65 17 45 10 57 20 96 75 11
17 12 14 7 -18 -3 -21 -3 -38 0 -38 3 0 28 12 55 26 46 24 77 53 107 100 11
17 12 17 12 -8 1 -26 3 -27 26 -16 14 6 25 17 25 25 0 7 7 13 15 13 8 0 18 15
23 38 21 84 44 267 40 313 -4 39 0 60 18 96 17 33 24 63 24 104 0 68 -4 72
-165 164 -55 32 -114 68 -131 81 l-32 23 33 36 c19 19 40 35 49 35 8 0 45 11
83 24 58 21 356 117 723 235 159 51 331 111 361 127 82 42 81 183 -2 258 -59
54 -86 50 -329 -48z m275 40 c19 -8 35 -19 35 -25 0 -5 -27 -20 -59 -32 l-59
-23 20 -28 c10 -16 18 -36 16 -46 -3 -14 -11 -10 -40 22 l-37 38 -138 -55
c-76 -31 -175 -70 -220 -87 -82 -31 -83 -32 -83 -65 0 -41 -22 -58 -95 -76
-27 -7 -64 -18 -82 -25 -17 -8 -55 -17 -84 -20 -29 -3 -81 -15 -117 -26 -45
-14 -67 -16 -76 -9 -9 8 -25 6 -54 -7 -44 -18 -54 -31 -24 -33 9 -1 -3 -7 -27
-15 -37 -11 -47 -11 -70 1 -15 7 -33 21 -40 29 -11 13 -10 17 5 23 11 4 73 29
139 56 66 27 147 60 180 72 33 13 107 42 165 65 58 22 125 48 150 57 25 8 63
23 85 33 44 20 294 119 394 156 36 13 67 26 69 29 7 7 9 7 47 -9z m-1404 -462
c15 -9 -51 -54 -78 -54 -53 0 -106 48 -70 64 15 7 134 -1 148 -10z m-1573
-241 c-17 -61 -27 -76 -43 -63 -16 14 -5 45 24 67 11 9 12 12 3 13 -17 0 -5
20 13 20 11 0 11 -8 3 -37z m-730 -57 c23 -32 29 -56 11 -56 -11 0 -79 71 -79
83 0 19 47 0 68 -27z m852 11 c0 -25 -26 -67 -41 -67 -14 0 -11 27 6 60 18 36
35 39 35 7z m160 12 c0 -6 -6 -25 -14 -42 -8 -18 -24 -63 -36 -102 -18 -62
-23 -70 -45 -70 -31 0 -32 18 -2 105 15 45 29 68 45 75 12 5 25 18 28 27 6 20
24 25 24 7z m-336 -44 c-4 -8 -8 -15 -10 -15 -2 0 -4 7 -4 15 0 8 4 15 10 15
5 0 7 -7 4 -15z m813 -5 c14 -11 21 -20 15 -20 -12 0 -60 39 -49 40 5 0 20 -9
34 -20z m1133 -261 c-94 -38 -292 -45 -375 -15 l-40 15 53 1 c29 0 51 -3 49
-7 -9 -14 177 -13 238 1 76 17 111 19 75 5z m-950 -183 c0 -46 3 -54 21 -59
23 -6 17 -27 -8 -27 -9 0 -24 -7 -34 -16 -16 -14 -18 -14 -24 5 -3 12 -4 25
-1 30 3 5 -1 14 -9 21 -19 15 -19 19 0 64 10 24 22 36 35 36 17 0 20 -7 20
-54z m640 -72 c0 -13 -4 -32 -10 -42 -5 -9 -20 -62 -34 -118 -27 -112 -68
-209 -93 -218 -9 -4 -17 -5 -19 -4 -1 2 7 28 18 58 30 84 33 97 17 83 -18 -18
-58 -16 -65 2 -10 26 -42 17 -71 -20 -15 -19 -34 -35 -40 -35 -17 0 -17 0 20
72 18 35 43 91 56 125 13 34 30 64 38 67 31 12 41 5 48 -34 6 -36 10 -40 35
-40 29 0 33 6 75 128 7 21 25 4 25 -24z m445 -51 c-11 -74 -16 -88 -25 -73
-10 16 -5 52 12 88 16 31 19 28 13 -15z m-310 -182 c-8 -26 -28 -63 -44 -82
-28 -32 -29 -33 -26 -9 1 14 17 54 34 90 17 36 31 74 31 86 0 11 3 24 8 28 14
15 13 -66 -3 -113z m-593 47 c-6 -7 -25 -21 -44 -32 l-33 -19 35 31 c35 31 62
43 42 20z m737 -50 c-12 -21 -13 -21 -17 -4 -2 10 2 30 10 44 12 24 13 24 16
4 2 -11 -2 -31 -9 -44z m-1034 -17 c3 -8 15 -11 32 -8 15 3 33 3 40 0 21 -8
41 -62 52 -140 12 -81 14 -319 2 -289 -5 14 -10 16 -15 8 -4 -7 -14 -12 -22
-12 -9 0 -24 -10 -35 -22 -11 -15 -18 -18 -19 -9 0 11 -3 11 -16 0 -14 -12
-14 -14 2 -19 10 -4 13 -9 8 -13 -6 -3 -21 4 -35 16 -15 14 -36 22 -55 21 -18
0 -56 3 -85 8 -30 5 -62 9 -72 9 -10 0 -21 7 -24 15 -3 8 -9 14 -14 14 -4 0
-6 -6 -3 -14 3 -8 -4 -24 -16 -36 -20 -20 -24 -21 -38 -6 -14 14 -14 17 4 38
l19 23 -22 -19 c-13 -11 -23 -26 -23 -35 0 -13 -2 -13 -9 -2 -5 7 -11 9 -14 4
-4 -5 -25 -10 -47 -11 -23 -1 -51 -7 -63 -14 -12 -6 -24 -11 -27 -10 -3 1 -21
-3 -40 -10 -38 -12 -59 -29 -62 -50 -4 -36 -16 197 -17 339 l-1 163 29 32 29
33 173 0 c96 -1 162 3 149 7 -14 4 32 6 102 5 97 -2 129 -5 133 -16z m449
-218 c8 -49 32 -203 51 -343 19 -140 42 -302 50 -360 8 -57 12 -107 7 -111 -4
-4 -16 -10 -27 -13 -19 -6 -21 1 -33 109 -12 114 -20 170 -48 355 -8 52 -21
154 -29 225 -9 72 -18 151 -22 178 -5 43 -4 47 15 47 17 0 22 -11 36 -87z
m-619 -328 c0 -27 -3 -30 -30 -30 -21 0 -31 5 -33 18 -6 33 6 49 35 45 24 -3
28 -8 28 -33z m249 -58 c34 -25 16 -119 -26 -133 -26 -8 -86 14 -98 36 -28 52
9 110 70 110 20 0 44 -6 54 -13z m-5434 -452 c0 -8 -5 -34 -12 -58 -10 -37 -8
-60 11 -148 24 -116 41 -279 29 -279 -16 0 -7 -80 13 -114 21 -37 39 -47 39
-22 0 14 19 12 135 -19 47 -13 68 -25 99 -58 l38 -42 -88 -6 c-49 -4 -111 -14
-139 -23 -27 -9 -60 -16 -72 -16 -13 0 -69 -16 -125 -35 -104 -36 -200 -87
-272 -144 -32 -26 -46 -31 -70 -26 -47 10 -266 75 -310 93 l-38 15 7 121 c4
66 8 127 10 136 1 8 5 38 9 65 13 91 64 228 105 281 9 11 49 47 89 80 111 91
136 109 143 107 4 -2 29 7 56 19 26 12 75 28 108 35 77 18 218 50 228 52 4 0
7 -6 7 -14z m5966 -51 c19 -9 36 -26 39 -38 24 -108 34 -319 15 -331 -11 -7
-25 43 -40 150 -12 81 -44 192 -61 210 -27 27 -2 32 47 9z m-148 -36 c24 -30
60 -255 62 -385 0 -9 -22 -13 -79 -13 -74 0 -81 2 -100 26 -12 15 -21 35 -21
44 0 10 -7 35 -16 56 -13 31 -15 58 -10 134 6 87 8 97 33 117 24 20 44 25 104
31 9 1 21 -4 27 -10z m-1489 -730 c-36 -69 -101 -137 -158 -167 -33 -17 -65
-31 -71 -31 -7 0 -30 -20 -53 -45 -37 -39 -77 -59 -77 -38 0 15 87 117 152
178 66 63 162 122 201 124 15 1 16 -2 6 -21z m-4075 -34 c9 -3 16 -16 16 -28
0 -31 -36 -58 -79 -58 -75 1 -305 -63 -281 -78 23 -14 -111 -78 -179 -86 l-63
-7 44 44 c65 66 106 93 204 138 133 59 289 94 338 75z m136 -135 c0 -5 -7 -9
-15 -9 -15 0 -20 12 -9 23 8 8 24 -1 24 -14z m258 -9 c-12 -17 -31 -30 -42
-30 -17 0 -16 3 10 19 18 11 35 24 38 30 4 6 9 11 12 11 2 0 -5 -13 -18 -30z
m-115 -27 c-7 -2 -21 -2 -30 0 -10 3 -4 5 12 5 17 0 24 -2 18 -5z m4011 -63
c31 -11 34 -35 6 -52 -11 -7 -20 -18 -20 -25 0 -21 -43 -15 -75 11 -26 21 -28
25 -15 41 26 32 64 41 104 25z m-4280 -20 c25 -25 -33 -67 -79 -56 -37 9 -43
35 -15 58 25 20 73 19 94 -2z m-170 -66 c14 -36 3 -44 -29 -21 -10 8 -15 19
-11 25 10 17 33 15 40 -4z m4315 2 c9 -11 9 -16 0 -22 -8 -5 -10 -3 -4 7 4 8
-5 0 -21 -18 -37 -39 -75 -49 -98 -24 -15 16 -15 19 1 33 46 39 101 50 122 24z
m411 -8 c0 -9 3 -9 12 0 26 26 64 10 52 -22 -8 -21 -38 -20 -69 0 -28 18 -33
34 -10 34 8 0 15 -5 15 -12z m-4208 -10 c9 -7 18 -22 20 -33 2 -17 -2 -20 -30
-18 -42 2 -77 30 -61 50 14 16 50 17 71 1z m512 -101 c9 -7 21 -29 25 -49 8
-32 6 -37 -13 -42 -11 -3 -28 -6 -37 -6 -18 0 -41 43 -34 65 3 8 7 22 10 30 5
18 25 19 49 2z m3989 -96 c26 -44 18 -39 -28 17 -31 36 -34 43 -15 31 14 -9
33 -30 43 -48z m-5283 -13 c0 -11 -70 -118 -77 -118 -2 0 4 15 12 33 8 17 22
49 31 69 15 34 34 43 34 16z m4984 -57 c41 -19 89 -52 127 -88 176 -167 184
-422 20 -596 -87 -92 -199 -133 -333 -124 -231 16 -402 215 -385 451 20 289
315 473 571 357z m-4289 -21 c210 -100 306 -338 225 -552 -64 -172 -277 -278
-464 -233 -95 23 -139 47 -206 111 -69 65 -104 128 -121 212 -26 137 9 268 97
363 127 135 312 174 469 99z m4688 -42 c40 -81 43 -118 7 -118 -20 0 -20 0 -1
-80 15 -64 14 -143 -3 -166 -21 -27 -23 -14 -30 153 -4 78 -10 153 -15 166 -5
13 -16 47 -25 76 -15 52 -15 52 7 49 16 -2 32 -23 60 -80z m-4201 -40 c29 -62
41 -162 24 -203 -18 -42 -37 -44 -65 -9 -27 34 -27 74 0 126 19 38 20 43 6 85
-13 40 -13 44 2 41 9 -2 24 -20 33 -40z m2748 -54 c-12 -49 -25 -102 -30 -119
-7 -28 -8 -28 -9 -5 0 14 3 41 9 60 5 19 12 51 15 70 6 40 26 93 32 87 2 -3
-6 -44 -17 -93z m1773 -9 c15 -58 37 -224 37 -282 -1 -24 -2 -26 -11 -10 -6 9
-7 26 -4 37 4 11 2 20 -3 20 -5 0 -13 30 -17 68 -7 65 -27 187 -40 247 l-7 30
14 -25 c8 -14 21 -52 31 -85z m-204 43 c12 -15 11 -18 -3 -18 -10 0 -16 8 -16
22 0 12 1 19 3 17 1 -2 9 -12 16 -21z m16 -66 c-8 -9 -25 20 -18 31 3 5 10 2
15 -7 6 -10 7 -20 3 -24z m-4037 -175 c16 -130 -5 -201 -27 -97 -6 28 -11 62
-11 75 0 13 -5 36 -11 52 -6 15 -7 48 -4 76 l7 47 18 -36 c10 -19 23 -72 28
-117z m2739 -63 c-9 -9 -28 6 -21 18 4 6 10 6 17 -1 6 -6 8 -13 4 -17z m-317
-109 c0 -19 1 -38 2 -42 1 -5 -5 -9 -13 -11 -11 -2 -13 7 -11 43 5 53 22 61
22 10z m1637 13 c-3 -8 -6 -5 -6 6 -1 11 2 17 5 13 3 -3 4 -12 1 -19z m-3717
-4 c0 -8 -4 -12 -10 -9 -5 3 -10 10 -10 16 0 5 5 9 10 9 6 0 10 -7 10 -16z
m-566 -46 c-3 -18 -14 -60 -25 -93 -10 -33 -22 -87 -25 -120 -4 -33 -11 -66
-17 -72 -16 -21 -44 -15 -67 14 -26 34 -21 58 24 118 19 24 42 68 51 97 24 71
33 88 50 88 11 0 13 -8 9 -32z m4282 -20 c-3 -13 -5 -25 -6 -28 -2 -3 -2 -9
-1 -13 1 -5 -6 -35 -15 -68 -10 -36 -15 -77 -11 -105 4 -37 1 -50 -14 -65 -23
-23 -52 -24 -73 -3 -27 27 -16 70 34 132 19 24 34 59 41 95 7 31 16 54 20 51
5 -3 9 10 9 28 1 26 3 30 10 16 6 -9 8 -27 6 -40z m-1278 -31 c2 -12 -3 -17
-17 -17 -12 0 -21 6 -21 13 0 31 32 34 38 4z m-490 -90 c2 -11 -3 -17 -16 -17
-24 0 -32 8 -25 26 7 20 37 13 41 -9z m-1055 7 c11 -11 -5 -34 -24 -34 -18 0
-26 20 -12 33 8 9 28 9 36 1z m1671 -118 c-6 -24 -56 -76 -73 -76 -4 0 -15 8
-24 18 -16 17 -16 20 6 39 72 64 104 71 91 19z m-4356 -28 c4 -32 -17 -38 -42
-12 -26 26 -17 47 19 42 13 -2 21 -12 23 -30z m4416 23 c3 -4 -2 -15 -12 -24
-21 -19 -46 -8 -36 16 6 18 39 23 48 8z m-3629 -55 c13 -19 14 -29 5 -45 -16
-30 -50 -11 -50 28 0 47 21 55 45 17z m3459 -12 c4 -11 -1 -18 -14 -21 -11 -3
-20 -9 -20 -14 0 -5 -7 -9 -15 -9 -20 0 -19 19 2 42 20 22 39 23 47 2z m836
-27 c0 -5 -4 -5 -10 -2 -5 3 -10 14 -10 23 0 15 2 15 10 2 5 -8 10 -19 10 -23z
m-4235 -75 c0 -18 -20 -15 -23 4 -3 10 1 15 10 12 7 -3 13 -10 13 -16z m2356
-82 c27 -15 24 -56 -6 -76 -23 -15 -27 -15 -50 0 -31 20 -32 50 -3 70 26 19
33 19 59 6z m-449 -24 c13 -19 9 -34 -14 -56 -26 -24 -28 -24 -56 -4 -26 18
-29 59 -4 73 19 11 63 4 74 -13z m588 -245 c0 -24 -26 -29 -60 -11 l-35 19 48
1 c26 0 47 -4 47 -9z m-3635 -81 c3 -6 -4 -10 -17 -10 -18 0 -20 2 -8 10 19
12 18 12 25 0z m495 -180 c0 -5 -4 -10 -10 -10 -5 0 -10 5 -10 10 0 6 5 10 10
10 6 0 10 -4 10 -10z m95 0 c3 -5 -3 -10 -14 -10 -12 0 -21 5 -21 10 0 6 6 10
14 10 8 0 18 -4 21 -10z m-418 -66 c-3 -3 -12 -4 -19 -1 -8 3 -5 6 6 6 11 1
17 -2 13 -5z m1213 -19 c0 -8 -4 -15 -10 -15 -5 0 -10 7 -10 15 0 8 5 15 10
15 6 0 10 -7 10 -15z"/>
<path d="M1767 5620 c-100 -19 -128 -80 -135 -301 -6 -217 8 -242 143 -243 59
0 80 5 131 32 123 63 172 159 159 316 -10 132 -33 167 -126 192 -58 15 -111
16 -172 4z m179 -71 c45 -14 59 -54 59 -164 -1 -97 -19 -149 -66 -190 l-23
-20 22 29 c12 16 22 34 22 40 0 6 -5 4 -10 -4 -9 -13 -11 -13 -19 0 -8 12 -12
10 -20 -10 -5 -14 -10 -21 -10 -17 -1 7 -11 1 -45 -30 -8 -7 -26 -15 -41 -19
-20 -5 -24 -9 -13 -16 8 -6 -6 -8 -41 -4 -30 3 -58 11 -63 18 -14 23 -9 235 8
309 21 91 34 100 133 93 42 -3 90 -10 107 -15z"/>
<path d="M6765 4425 c-112 -29 -189 -94 -241 -204 -20 -42 -27 -76 -31 -147
-6 -105 9 -166 58 -234 17 -23 25 -39 17 -35 -7 3 10 -15 39 -42 64 -60 159
-93 271 -93 293 0 461 312 317 590 -24 47 -121 127 -183 150 -73 28 -170 34
-247 15z m273 -60 c72 -32 90 -49 73 -68 -6 -8 -8 -17 -4 -20 3 -4 11 1 18 10
14 19 39 8 31 -13 -3 -8 3 -23 14 -34 10 -10 29 -51 40 -89 21 -66 21 -72 6
-131 -18 -70 -35 -107 -36 -77 0 22 -12 22 -32 -2 -27 -31 -39 -61 -32 -73 4
-6 3 -8 -2 -5 -6 3 -15 -3 -22 -13 -9 -14 -9 -21 0 -26 7 -5 8 -3 3 6 -6 9 -4
11 4 5 33 -20 -94 -97 -181 -110 -51 -8 -144 12 -208 45 -93 48 -154 143 -166
260 -15 151 82 302 226 354 68 25 190 16 268 -19z m-427 -592 c13 -16 12 -17
-3 -4 -10 7 -18 15 -18 17 0 8 8 3 21 -13z"/>
<path d="M6997 4193 c-36 -37 -64 -69 -61 -72 4 -4 136 117 142 132 11 24 -24
-2 -81 -60z"/>
<path d="M7060 4175 c-24 -25 -42 -45 -39 -45 3 0 25 20 49 45 24 25 42 45 39
45 -3 0 -25 -20 -49 -45z"/>
<path d="M6761 3962 c-63 -59 -112 -113 -110 -120 4 -12 127 99 203 186 68 75
24 44 -93 -66z"/>
<path d="M6807 3930 c-73 -71 -125 -130 -117 -130 8 0 52 39 98 88 46 48 102
106 125 130 23 23 38 42 34 42 -5 0 -67 -58 -140 -130z"/>
<path d="M2443 4395 c-122 -38 -224 -147 -242 -259 -13 -85 -6 -169 23 -253
24 -72 34 -89 83 -133 30 -27 59 -50 64 -50 5 0 11 0 14 0 2 -1 28 -12 57 -25
79 -37 191 -35 273 4 67 32 108 70 100 93 -5 13 -17 10 -68 -17 -94 -49 -153
-61 -224 -46 -135 30 -218 102 -259 223 -24 73 -16 177 20 248 59 119 152 180
288 188 87 5 141 -9 226 -61 48 -28 58 -41 89 -106 38 -81 48 -159 27 -221
-11 -31 -16 -35 -42 -33 -23 2 -32 -2 -37 -16 -3 -10 -24 -47 -47 -82 -22 -35
-33 -57 -24 -50 11 9 30 12 61 7 45 -6 46 -5 74 39 42 66 55 123 49 218 -5 67
-12 95 -37 146 -69 136 -179 202 -339 200 -48 0 -106 -6 -129 -14z"/>
<path d="M2806 4254 c-5 -14 -4 -15 9 -4 17 14 19 20 6 20 -5 0 -12 -7 -15
-16z"/>
<path d="M2671 4135 c-51 -52 -89 -95 -84 -95 12 0 188 178 182 185 -3 3 -47
-38 -98 -90z"/>
<path d="M2747 4122 c-19 -20 -23 -37 -7 -27 10 6 33 45 27 45 -2 0 -11 -8
-20 -18z"/>
<path d="M2659 4041 c-13 -11 -21 -22 -18 -25 3 -3 16 5 29 19 28 30 22 33
-11 6z"/>
<path d="M2455 3920 c-59 -61 -105 -113 -101 -117 7 -8 123 103 188 180 71 83
25 50 -87 -63z"/>
<path d="M2497 3884 c-54 -53 -95 -99 -92 -102 3 -3 52 40 108 96 56 56 97
102 92 102 -6 0 -54 -43 -108 -96z"/>
<path d="M2813 8353 c15 -2 39 -2 55 0 15 2 2 4 -28 4 -30 0 -43 -2 -27 -4z"/>
<path d="M7143 8353 c9 -2 23 -2 30 0 6 3 -1 5 -18 5 -16 0 -22 -2 -12 -5z"/>
<path d="M2710 8330 c-8 -5 -10 -10 -5 -10 6 0 17 5 25 10 8 5 11 10 5 10 -5
0 -17 -5 -25 -10z"/>
<path d="M7235 8327 c11 -7 39 -32 63 -56 45 -47 72 -51 29 -5 -24 26 -25 29
-9 42 15 12 15 13 -7 8 -13 -3 -37 2 -52 10 -33 17 -53 18 -24 1z"/>
<path d="M3000 8313 c14 -10 43 -34 65 -53 l40 -34 -32 35 c-18 19 -47 42 -65
52 -32 17 -32 17 -8 0z"/>
<path d="M2653 8295 c-31 -25 -93 -110 -93 -128 0 -5 16 15 37 44 20 30 50 66
67 81 39 34 32 36 -11 3z"/>
<path d="M6948 8283 c7 -3 16 -2 19 1 4 3 -2 6 -13 5 -11 0 -14 -3 -6 -6z"/>
<path d="M4335 8234 c6 -5 23 -20 40 -34 29 -24 29 -24 10 -2 -11 13 -29 28
-40 34 -11 6 -15 6 -10 2z"/>
<path d="M4191 8142 c-3 -77 65 -132 138 -112 21 5 44 17 51 25 11 13 9 13
-16 0 -34 -17 -87 -20 -114 -5 -24 13 -42 44 -51 90 l-7 35 -1 -33z"/>
<path d="M4401 8134 c0 -11 3 -14 6 -6 3 7 2 16 -1 19 -3 4 -6 -2 -5 -13z"/>
<path d="M5540 8140 c-20 -6 -16 -8 23 -9 30 -1 46 3 42 9 -7 11 -29 11 -65 0z"/>
<path d="M5620 8131 c0 -6 7 -11 15 -11 22 0 86 -60 101 -95 7 -16 13 -23 14
-14 0 27 -43 80 -87 106 -24 14 -43 20 -43 14z"/>
<path d="M5452 8092 c-71 -71 -77 -158 -15 -239 19 -25 33 -46 31 -47 -2 -1
-20 -14 -41 -30 l-38 -28 -22 29 c-108 138 -229 203 -382 203 -63 0 -162 -31
-158 -49 2 -6 -4 -8 -11 -5 -23 9 -98 -68 -141 -145 l-40 -70 -80 6 c-56 4
-77 2 -70 -5 6 -6 44 -12 87 -14 42 -2 76 -5 76 -8 0 -3 0 -9 1 -15 2 -12 41
72 41 88 0 6 7 18 16 28 8 9 17 26 19 36 1 10 8 17 13 16 6 -2 9 4 5 13 -4 10
-1 15 8 13 8 -2 36 12 64 29 67 44 115 56 210 55 91 -1 96 -2 148 -27 46 -23
168 -131 159 -142 -4 -4 -2 -4 5 0 13 7 22 -4 28 -36 8 -40 22 -42 62 -8 44
36 137 90 158 90 8 0 17 5 20 10 8 12 -37 5 -71 -12 -16 -7 -28 -6 -45 3 -13
7 -28 13 -33 14 -12 0 -44 92 -45 128 -1 39 32 100 71 131 18 14 27 26 21 26
-7 0 -30 -17 -51 -38z m-647 -182 c-3 -5 -12 -10 -18 -10 -7 0 -6 4 3 10 19
12 23 12 15 0z"/>
<path d="M2535 8074 c-4 -22 -2 -41 4 -47 8 -8 11 3 11 36 0 56 -5 60 -15 11z"/>
<path d="M3146 8034 c-8 -59 -40 -131 -74 -167 -34 -36 -109 -87 -127 -87 -8
0 -17 -4 -20 -10 -17 -28 65 7 126 53 55 43 94 117 104 200 4 31 5 57 3 57 -3
0 -8 -21 -12 -46z"/>
<path d="M2548 8005 c-18 -29 71 -178 122 -205 37 -20 29 8 -11 36 -39 27 -83
96 -99 154 -3 13 -9 20 -12 15z"/>
<path d="M6361 7828 c0 -15 -9 -32 -18 -37 -10 -6 -13 -11 -7 -11 19 0 36 28
31 52 -4 21 -4 20 -6 -4z"/>
<path d="M6247 7820 c3 -11 14 -25 25 -31 28 -15 27 -8 -3 24 -24 24 -27 25
-22 7z"/>
<path d="M2153 7823 c9 -2 25 -2 35 0 9 3 1 5 -18 5 -19 0 -27 -2 -17 -5z"/>
<path d="M2020 7753 c-51 -52 -81 -124 -79 -192 1 -20 3 -27 5 -16 29 144 38
164 103 222 20 18 32 32 27 33 -5 0 -30 -21 -56 -47z"/>
<path d="M2350 7786 c0 -2 8 -10 18 -17 15 -13 16 -12 3 4 -13 16 -21 21 -21
13z"/>
<path d="M2710 7780 c8 -5 20 -10 25 -10 6 0 3 5 -5 10 -8 5 -19 10 -25 10 -5
0 -3 -5 5 -10z"/>
<path d="M2758 7763 c7 -3 16 -2 19 1 4 3 -2 6 -13 5 -11 0 -14 -3 -6 -6z"/>
<path d="M2795 7761 c-4 -7 15 -11 56 -11 73 0 74 8 1 16 -30 3 -53 1 -57 -5z"/>
<path d="M4428 7703 c-10 -2 -18 -8 -18 -13 0 -5 -6 -7 -12 -5 -37 14 -148
-114 -148 -170 0 -12 -12 -15 -52 -15 -59 0 -121 -26 -160 -67 -35 -39 -62
-123 -39 -123 4 0 11 21 14 46 5 46 37 93 68 98 8 1 30 10 50 19 32 16 96 16
121 1 8 -5 29 56 23 66 -3 4 2 11 11 14 9 4 14 13 10 22 -3 8 -2 12 4 9 6 -3
10 -1 10 4 0 16 119 101 141 101 10 0 19 5 19 10 0 10 -12 11 -42 3z"/>
<path d="M7608 7653 c6 -2 18 -2 25 0 6 3 1 5 -13 5 -14 0 -19 -2 -12 -5z"/>
<path d="M2451 7634 c0 -11 3 -14 6 -6 3 7 2 16 -1 19 -3 4 -6 -2 -5 -13z"/>
<path d="M2457 7554 c-17 -136 -117 -222 -264 -225 -55 -1 -63 -4 -43 -11 39
-15 128 0 183 30 27 14 65 46 83 70 34 45 59 127 52 172 -2 15 -7 0 -11 -36z"/>
<path d="M1950 7504 c-1 -50 113 -175 159 -174 12 1 12 3 -4 12 -54 30 -99 76
-125 127 -18 35 -29 49 -30 35z"/>
<path d="M2958 7373 c7 -3 16 -2 19 1 4 3 -2 6 -13 5 -11 0 -14 -3 -6 -6z"/>
<path d="M3931 7296 c11 -9 69 -15 64 -6 -3 6 -20 10 -37 10 -17 0 -29 -2 -27
-4z"/>
<path d="M3860 7264 c-51 -43 -74 -99 -75 -179 -1 -57 -6 -78 -26 -110 -29
-46 -149 -271 -149 -279 0 -3 13 -6 29 -6 33 0 41 14 41 72 0 31 7 46 30 70
17 16 49 62 72 101 24 40 62 91 86 115 37 35 50 42 85 43 23 0 57 6 76 13 29
10 31 13 17 25 -11 9 -29 11 -54 7 -21 -3 -53 -2 -70 3 -30 9 -34 7 -72 -37
l-41 -47 4 72 c4 80 20 113 70 143 18 11 27 20 20 20 -6 0 -26 -12 -43 -26z"/>
<path d="M3082 7263 c-3 -42 -33 -100 -57 -113 -14 -7 -41 -16 -62 -20 l-38
-8 35 -1 c70 -2 136 66 127 132 -2 20 -4 23 -5 10z"/>
<path d="M2831 7244 c0 -16 6 -39 14 -50 14 -18 14 -17 5 11 -5 17 -11 39 -13
50 -3 13 -5 9 -6 -11z"/>
<path d="M5005 7210 c-86 -8 -111 -21 -130 -66 -8 -19 -22 -37 -32 -40 -10 -3
-24 -8 -32 -10 -8 -3 -11 -7 -8 -10 11 -11 74 27 85 51 l11 23 182 -5 c146 -4
185 -8 198 -20 26 -27 78 -43 133 -43 56 1 125 28 121 48 -2 9 42 12 172 12
171 0 183 -2 253 -36 1 0 -4 -14 -13 -30 -8 -16 -15 -40 -15 -53 l0 -24 -332
7 c-183 4 -439 9 -568 11 -161 3 -236 8 -238 15 -3 7 -17 -1 -34 -17 -23 -22
-39 -28 -75 -28 -38 0 -49 5 -69 30 -18 22 -26 27 -32 17 -5 -7 -41 -15 -88
-18 -63 -5 -94 -2 -151 14 -76 21 -95 20 -41 -2 l31 -14 -41 -7 c-23 -3 -45
-4 -50 -1 -13 8 -179 -22 -221 -40 -92 -39 -166 -149 -367 -554 l-72 -145 -51
0 c-46 0 -52 3 -62 27 -10 24 -7 34 27 90 21 35 51 83 67 106 22 33 28 51 23
72 -3 17 1 45 10 66 8 20 13 38 11 41 -5 5 -28 -34 -123 -210 l-68 -127 -33 6
c-44 8 -75 -1 -114 -33 -31 -26 -37 -27 -143 -28 -113 -1 -151 -11 -199 -53
-9 -8 -30 -17 -44 -18 -15 -2 -50 -8 -76 -15 -43 -10 -47 -13 -34 -26 12 -13
21 -13 51 -3 20 6 49 10 65 8 21 -2 39 7 69 34 23 20 60 42 83 48 42 12 156 9
194 -4 16 -5 24 0 37 24 20 36 74 62 109 53 42 -11 81 -44 76 -64 -8 -28 7
-32 84 -20 85 14 137 3 191 -40 26 -21 52 -31 93 -35 38 -5 66 -15 85 -31 39
-32 73 -100 65 -131 -3 -13 0 -30 6 -39 7 -8 14 -22 15 -31 0 -10 4 -48 8 -86
3 -38 9 -73 12 -78 3 -5 8 -30 10 -56 7 -79 -31 -122 -121 -139 -54 -10 -91
-63 -44 -63 12 0 40 -5 62 -12 33 -10 41 -10 51 4 6 8 26 19 44 23 42 9 82 61
82 106 0 32 -21 75 -43 90 -5 3 -11 24 -14 46 l-5 40 111 5 c61 3 232 6 378 7
147 1 269 4 272 6 2 2 -2 17 -8 33 -11 25 -9 36 11 78 14 30 31 50 43 52 49
10 46 24 -12 60 -32 20 -61 41 -65 46 -4 6 -8 34 -8 63 0 61 -37 129 -57 107
-7 -6 -9 -15 -6 -18 4 -3 -7 -5 -23 -2 -16 2 -21 1 -11 -1 41 -10 25 -77 -16
-71 -17 2 -22 10 -22 35 0 19 -4 28 -10 24 -5 -5 -35 -7 -65 -6 -30 1 -63 -2
-72 -7 -10 -5 -20 -4 -24 4 -4 7 -3 8 4 4 14 -8 15 3 4 21 -6 9 -26 -10 -65
-60 -31 -40 -65 -80 -74 -89 -10 -9 -29 -28 -42 -42 -15 -17 -34 -26 -52 -26
-33 0 -44 18 -35 55 8 30 45 34 71 9 9 -9 19 -14 22 -10 4 3 4 6 0 6 -14 0 21
72 75 151 32 48 58 89 58 91 0 3 -7 5 -15 5 -8 0 -15 -4 -15 -9 0 -4 -17 -24
-37 -44 -40 -37 -35 -37 -133 -18 -14 3 -54 7 -89 9 -35 2 -67 9 -71 15 -5 8
-9 6 -13 -4 -4 -9 -12 -16 -19 -16 -9 0 -8 3 2 10 9 6 10 10 3 10 -6 0 -15 -5
-19 -11 -3 -6 -17 -9 -30 -6 -13 2 -21 1 -19 -3 2 -4 -8 -13 -23 -21 -15 -8
-31 -20 -35 -26 -13 -20 -28 -15 -61 20 -34 35 -34 35 -93 38 -35 2 -39 5 -35
23 5 20 5 20 -11 4 -18 -17 -24 -53 -8 -43 5 3 12 1 16 -5 4 -6 -8 -10 -29
-10 -27 0 -34 3 -30 15 4 8 10 12 15 9 5 -3 6 2 3 10 -3 9 33 91 86 193 160
310 212 383 302 429 42 22 73 27 216 38 185 14 466 10 456 -6 -3 -5 8 -3 24 6
22 11 59 16 123 16 l92 0 -7 -471 -8 -472 53 5 c52 5 53 5 101 -44 40 -41 46
-53 38 -68 -6 -10 -10 -30 -10 -44 l0 -26 121 0 c109 0 125 2 158 23 25 15 57
24 106 27 l70 5 0 35 c0 41 11 60 45 83 38 26 86 22 116 -10 13 -14 25 -24 27
-22 1 2 13 26 26 52 31 62 88 97 171 104 50 5 67 2 113 -20 70 -35 99 -85 101
-173 0 -34 5 -60 9 -57 5 3 17 -3 27 -12 17 -15 33 -17 112 -11 51 3 118 7
148 8 l55 2 12 -54 c7 -30 18 -112 24 -182 15 -169 13 -173 -121 -213 -30 -9
-68 -22 -85 -30 -16 -7 -48 -20 -69 -29 -204 -84 -461 -374 -551 -621 -10 -27
-22 -54 -26 -60 -16 -23 -38 -115 -28 -121 15 -9 46 23 54 54 15 62 93 224
151 312 155 239 310 361 562 442 70 23 135 48 144 56 37 31 40 70 18 242 -11
90 -20 174 -20 187 0 23 0 23 145 23 126 0 145 2 155 18 8 12 13 13 16 5 4 -9
38 -13 120 -13 93 0 114 3 114 15 0 12 -41 14 -276 14 -152 0 -278 2 -280 4
-17 17 -35 194 -35 349 1 195 13 281 61 412 27 73 30 106 9 106 -22 0 -59 -90
-101 -250 -23 -90 -28 -353 -8 -513 6 -55 9 -101 6 -104 -3 -3 -56 -7 -118 -9
-75 -3 -106 -1 -92 5 12 5 31 22 44 38 22 28 22 29 15 290 -8 271 -1 362 32
427 15 28 144 181 190 224 33 31 43 28 36 -12 -6 -39 20 -58 37 -27 13 25 21
93 12 108 -4 6 -40 13 -82 14 -71 4 -75 3 -78 -18 -4 -30 -48 -63 -82 -63 -15
0 -43 11 -63 24 -39 27 -47 25 -47 -11 0 -40 -58 -92 -115 -102 -27 -5 -52 -8
-55 -6 -3 2 -23 6 -45 9 -62 10 -110 50 -145 119 -35 70 -37 99 -11 148 l19
36 -35 12 c-19 7 -49 25 -66 41 -38 33 -114 42 -187 21 -25 -7 -71 -11 -102
-9 -50 4 -59 2 -64 -15 -9 -27 -81 -57 -139 -57 -52 0 -108 25 -132 60 -9 12
-32 19 -85 23 -40 3 -80 7 -88 10 -8 2 -46 1 -85 -3z m683 -257 l240 -6 18
-39 c37 -82 144 -148 240 -148 81 0 122 14 164 55 31 30 41 34 68 29 18 -4 32
-9 32 -11 0 -3 -20 -28 -45 -55 -65 -73 -94 -197 -95 -403 0 -46 -4 -74 -9
-67 -9 15 -56 16 -208 4 -96 -7 -214 -1 -290 14 -32 6 -113 -21 -113 -38 0 -4
-15 -8 -33 -8 -18 0 -42 -7 -54 -15 -22 -16 -83 -17 -83 -3 0 4 -7 8 -15 8 -8
0 -15 -4 -15 -9 0 -6 -12 -6 -30 -1 -17 5 -28 5 -25 0 6 -9 -112 -18 -125 -10
-5 3 -39 2 -77 -1 -75 -8 -92 -11 -110 -22 -6 -4 -28 -5 -47 -3 -34 4 -36 3
-38 -27 -6 -112 -15 360 -11 541 l6 222 207 0 c114 0 315 -3 448 -7z m240
-703 c-1 -35 -14 -40 -23 -9 -6 17 6 37 22 39 1 0 1 -13 1 -30z m171 -9 c9 -6
10 -10 2 -16 -15 -8 -41 1 -41 15 0 12 20 13 39 1z m218 -23 c-3 -8 -6 -5 -6
6 -1 11 2 17 5 13 3 -3 4 -12 1 -19z m-2428 -14 c2 -2 -7 -4 -22 -4 -14 0 -29
5 -32 10 -6 10 42 4 54 -6z m1701 -4 c0 -5 -7 -10 -16 -10 -8 0 -12 5 -9 10 3
6 10 10 16 10 5 0 9 -4 9 -10z m-480 -10 c0 -5 -7 -10 -15 -10 -8 0 -15 5 -15
10 0 6 7 10 15 10 8 0 15 -4 15 -10z m1150 -24 c0 -3 -4 -8 -10 -11 -5 -3 -10
-1 -10 4 0 6 5 11 10 11 6 0 10 -2 10 -4z m-1029 -29 c-13 -13 -26 -3 -16 12
3 6 11 8 17 5 6 -4 6 -10 -1 -17z m479 -7 c0 -5 -4 -10 -10 -10 -5 0 -10 5
-10 10 0 6 5 10 10 10 6 0 10 -4 10 -10z"/>
<path d="M5870 6440 c8 -5 26 -9 40 -9 l25 1 -25 8 c-14 4 -32 8 -40 9 -13 1
-13 0 0 -9z"/>
<path d="M4180 7172 c-45 -3 -58 -8 -73 -28 l-19 -25 70 6 c65 7 71 6 81 -14
16 -29 63 -51 109 -51 44 0 130 26 151 46 26 24 -15 28 -62 5 -77 -38 -154
-25 -184 31 -17 32 -20 33 -73 30z"/>
<path d="M3485 7063 c3 -12 -1 -37 -10 -55 l-16 -33 21 24 c22 26 25 48 9 71
-8 12 -9 10 -4 -7z"/>
<path d="M3354 7034 c3 -9 6 -20 6 -25 0 -10 53 -39 72 -39 7 1 -1 7 -19 15
-20 8 -35 23 -39 39 -3 14 -11 26 -16 26 -6 0 -7 -7 -4 -16z"/>
<path d="M9054 6972 c-25 -20 -48 -61 -40 -70 3 -3 6 0 6 6 0 6 14 27 31 47
34 39 35 43 3 17z"/>
<path d="M9003 6854 c3 -20 13 -47 22 -60 16 -26 75 -61 75 -45 0 5 -9 13 -21
16 -26 9 -59 62 -59 98 0 15 -5 27 -11 27 -8 0 -10 -12 -6 -36z"/>
<path d="M9256 6877 c9 -24 -26 -87 -59 -107 -17 -11 -45 -20 -61 -20 -19 0
-27 -3 -20 -10 14 -14 82 5 110 31 32 30 58 119 34 119 -5 0 -7 -6 -4 -13z"/>
<path d="M2069 6853 c-13 -16 -12 -17 4 -4 9 7 17 15 17 17 0 8 -8 3 -21 -13z"/>
<path d="M3103 6583 c9 -2 23 -2 30 0 6 3 -1 5 -18 5 -16 0 -22 -2 -12 -5z"/>
<path d="M1115 6497 c-56 -19 -110 -48 -270 -145 -190 -115 -345 -233 -458
-351 -151 -158 -180 -213 -163 -306 9 -46 57 -101 96 -108 16 -4 30 -12 30
-19 0 -7 -11 -83 -24 -168 -26 -169 -54 -283 -70 -289 -28 -11 -55 -53 -66
-105 -10 -52 -10 -59 10 -91 11 -19 36 -43 54 -54 l33 -21 -24 -77 c-14 -43
-34 -102 -45 -131 -26 -68 -125 -216 -177 -267 -30 -29 -41 -47 -41 -69 0 -30
0 -30 66 34 89 88 156 194 206 323 37 96 43 107 62 101 35 -10 35 -16 12 -89
-25 -79 -78 -180 -142 -271 -42 -59 -177 -194 -195 -194 -5 0 -9 -40 -9 -90
l0 -90 75 52 c87 58 202 178 270 279 58 87 123 227 160 345 l29 91 40 9 c49
11 82 54 92 120 5 33 2 50 -10 70 -16 24 -15 35 24 237 23 117 47 232 54 257
l13 45 13 -75 c45 -275 52 -298 98 -317 46 -19 112 -10 145 21 41 38 44 83 10
158 -30 67 -35 124 -15 175 6 15 16 60 22 100 l12 72 61 34 c133 73 327 199
351 228 38 45 49 98 35 169 -7 37 -17 61 -25 62 -8 0 -20 1 -26 2 -7 1 -17 7
-21 14 -13 19 -29 14 -22 -8 11 -33 -18 -24 -69 23 -56 52 -63 91 -19 108 60
22 93 42 93 54 0 20 -71 110 -105 134 -40 27 -117 35 -170 18z m49 -44 c-14
-44 -10 -203 5 -250 13 -40 13 -43 -11 -72 l-26 -30 -15 42 c-28 77 -37 121
-37 195 0 83 9 105 48 126 39 22 45 20 36 -11z m-108 -115 c0 -83 4 -117 23
-173 31 -92 55 -138 94 -183 18 -20 39 -46 47 -57 13 -18 13 -19 0 -8 -12 9
-23 6 -55 -16 -22 -16 -39 -33 -37 -40 1 -6 -2 -11 -7 -11 -12 0 -3 -62 10
-70 6 -4 -4 -13 -21 -20 -35 -14 -87 -3 -83 18 2 6 -3 9 -11 6 -20 -8 -96 85
-139 169 -47 94 -67 173 -67 269 0 69 2 79 23 92 16 11 217 124 223 126 0 0 1
-46 0 -102z m-265 -99 c-2 -8 -4 -26 -4 -40 -1 -23 -6 -26 -31 -24 -40 4 -116
-43 -116 -71 0 -21 -30 -67 -60 -92 -8 -7 -32 -11 -53 -9 -33 2 -36 1 -21 -10
10 -7 15 -16 11 -19 -3 -4 -2 -15 3 -25 7 -12 6 -20 -1 -24 -6 -4 -8 -13 -5
-21 3 -8 1 -14 -3 -14 -5 0 -11 4 -13 10 -1 5 -8 -2 -15 -15 -6 -14 -7 -23 -2
-19 14 8 10 -6 -6 -22 -12 -12 -15 -12 -15 -2 -1 7 -9 -2 -19 -21 -24 -46 -34
-28 -39 74 l-4 80 52 54 c66 70 188 163 264 201 61 31 84 33 77 9z m532 -307
c-3 -14 -12 -22 -22 -19 -9 2 -14 10 -12 18 2 8 6 22 8 32 4 13 1 16 -11 11
-12 -5 -15 -2 -10 11 11 27 55 -22 47 -53z m-946 -29 c-4 -20 -13 -41 -22 -46
-8 -4 -13 -12 -10 -17 3 -5 -4 -15 -14 -22 -11 -8 -25 -26 -30 -41 -14 -36
-31 -34 -31 3 0 44 22 90 60 128 44 42 54 41 47 -5z m248 -43 c3 0 3 5 0 10
-3 6 -4 10 -1 10 16 0 13 -21 -5 -30 -17 -10 -20 -9 -14 1 6 8 4 11 -7 7 -8
-4 -15 0 -15 7 0 10 5 11 18 4 10 -5 20 -9 24 -9z m-58 -4 c0 -8 -6 -12 -15
-9 -11 5 -11 7 0 14 7 5 13 9 14 9 0 0 1 -6 1 -14z m413 -329 c0 -12 -5 -38
-10 -57 -20 -67 -15 -115 19 -173 27 -47 30 -59 20 -80 -13 -30 -51 -52 -74
-43 -28 10 -45 72 -53 197 l-8 122 40 29 c47 34 66 36 66 5z m-582 -99 c16
-16 15 -61 -3 -104 -15 -37 -31 -40 -49 -12 -7 12 -5 32 7 72 19 58 25 64 45
44z m452 -34 c0 -38 21 -158 36 -206 4 -13 0 -18 -15 -18 -23 0 -38 42 -52
150 -13 104 -12 119 11 117 17 -1 20 -8 20 -43z m-468 -147 c4 -7 5 -19 2 -27
-3 -8 -12 -36 -20 -61 -11 -37 -19 -48 -40 -52 -23 -4 -25 -2 -19 22 4 14 10
27 14 29 5 1 6 14 3 27 -2 14 0 25 6 25 7 0 8 10 2 31 -9 30 -8 31 18 24 15
-4 30 -12 34 -18z m-79 -191 c18 -13 56 -34 84 -46 29 -12 51 -26 48 -30 -3
-5 1 -11 7 -13 31 -13 -33 -6 -81 9 -98 29 -147 71 -109 95 17 12 15 12 51
-15z"/>
<path d="M1045 5770 c3 -5 14 -10 23 -10 15 0 15 2 2 10 -20 13 -33 13 -25 0z"/>
<path d="M2832 6474 c10 -10 20 -16 22 -13 3 3 -5 11 -17 18 -21 13 -21 12 -5
-5z"/>
<path d="M8251 6483 c-3 -39 50 -92 81 -80 7 3 4 6 -8 6 -24 1 -43 20 -61 60
-6 14 -12 21 -12 14z"/>
<path d="M8423 6453 c-10 -34 -10 -36 3 -19 12 17 20 56 11 56 -1 0 -7 -17
-14 -37z"/>
<path d="M2878 6453 c6 -2 18 -2 25 0 6 3 1 5 -13 5 -14 0 -19 -2 -12 -5z"/>
<path d="M2930 6445 c7 -9 15 -13 17 -11 7 7 -7 26 -19 26 -6 0 -6 -6 2 -15z"/>
<path d="M8945 6454 c90 -13 153 -28 181 -42 29 -15 134 -107 134 -117 0 -2
10 -21 22 -42 12 -20 24 -44 26 -53 19 -86 7 -191 -30 -265 -12 -22 -20 -41
-19 -43 3 -5 -71 -62 -116 -88 -58 -35 -98 -45 -178 -48 -84 -3 -142 12 -175
45 -14 14 -34 31 -45 39 -11 8 -34 32 -52 52 -17 20 -34 34 -37 31 -3 -4 -6
-2 -7 3 -2 29 -9 65 -19 103 -14 53 -11 137 6 172 7 15 10 29 7 33 -4 3 -1 6
5 6 7 0 12 6 12 13 0 26 110 135 162 161 29 14 46 26 39 26 -16 0 -120 -56
-145 -78 -29 -27 -77 -101 -79 -122 -1 -11 -4 -20 -7 -20 -15 0 -29 -79 -26
-145 5 -129 75 -238 187 -294 88 -44 153 -56 229 -43 132 24 227 93 285 207
27 54 30 69 30 155 -1 86 -4 100 -30 148 -46 85 -90 128 -168 167 -59 29 -87
37 -147 40 -41 2 -61 2 -45 -1z"/>
<path d="M8888 6443 c7 -3 16 -2 19 1 4 3 -2 6 -13 5 -11 0 -14 -3 -6 -6z"/>
<path d="M3174 6418 l-19 -23 23 19 c21 18 27 26 19 26 -2 0 -12 -10 -23 -22z"/>
<path d="M8356 6401 c-4 -5 3 -7 14 -4 23 6 26 13 6 13 -8 0 -17 -4 -20 -9z"/>
<path d="M3043 6383 c9 -2 23 -2 30 0 6 3 -1 5 -18 5 -16 0 -22 -2 -12 -5z"/>
<path d="M4729 6313 c-13 -16 -12 -17 4 -4 16 13 21 21 13 21 -2 0 -10 -8 -17
-17z"/>
<path d="M1381 6311 c-17 -11 -7 -59 15 -68 12 -4 10 -9 -8 -25 -16 -14 -30
-17 -52 -12 -27 6 -29 5 -18 -9 8 -9 25 -14 48 -11 21 2 46 -3 60 -13 14 -9
27 -13 31 -10 6 7 -47 157 -56 157 -3 0 -12 -4 -20 -9z"/>
<path d="M1983 6263 c20 -2 54 -2 75 0 20 2 3 4 -38 4 -41 0 -58 -2 -37 -4z"/>
<path d="M3777 6063 c-14 -13 -6 -24 15 -21 27 4 36 28 11 28 -11 0 -23 -3
-26 -7z"/>
<path d="M1868 6053 c7 -3 16 -2 19 1 4 3 -2 6 -13 5 -11 0 -14 -3 -6 -6z"/>
<path d="M2587 5974 c-4 -4 -7 -11 -7 -16 0 -13 50 -6 53 7 2 12 -36 19 -46 9z"/>
<path d="M2890 5976 c0 -2 9 -6 20 -9 11 -3 18 -1 14 4 -5 9 -34 13 -34 5z"/>
<path d="M3507 5963 c-4 -3 -7 -11 -7 -17 0 -6 5 -5 12 2 6 6 9 14 7 17 -3 3
-9 2 -12 -2z"/>
<path d="M3160 5947 c0 -3 7 -13 16 -21 21 -22 119 -22 128 -1 4 12 -4 15 -38
15 -24 0 -58 3 -75 6 -17 4 -31 4 -31 1z"/>
<path d="M3732 5938 c-15 -15 -16 -55 -1 -63 16 -10 49 25 49 52 0 25 -27 32
-48 11z"/>
<path d="M3876 5908 c-16 -23 -6 -48 19 -48 19 0 48 38 42 55 -9 22 -43 18
-61 -7z"/>
<path d="M7430 5920 c0 -13 130 -13 150 0 10 7 -11 10 -67 10 -49 0 -83 -4
-83 -10z"/>
<path d="M3582 5842 c-16 -28 -12 -45 6 -33 8 5 12 19 10 32 l-3 24 -13 -23z"/>
<path d="M3096 5812 c-2 -4 4 -14 15 -20 19 -12 19 -11 9 8 -12 22 -16 24 -24
12z"/>
<path d="M3859 5794 c-12 -14 -11 -16 5 -13 11 2 21 10 24 17 5 17 -13 15 -29
-4z"/>
<path d="M3946 5784 c-4 -10 -1 -14 6 -12 15 5 23 28 10 28 -5 0 -13 -7 -16
-16z"/>
<path d="M2655 5770 c-17 -18 -17 -20 -1 -20 9 0 19 7 23 15 9 25 -2 27 -22 5z"/>
<path d="M3684 5782 c-6 -4 -17 -18 -23 -31 -11 -19 -10 -26 1 -38 18 -17 41
-9 58 22 21 39 -3 70 -36 47z"/>
<path d="M5125 5780 c3 -5 1 -10 -6 -10 -7 0 -10 -2 -7 -5 7 -8 38 5 38 16 0
5 -7 9 -16 9 -8 0 -12 -4 -9 -10z"/>
<path d="M2839 5751 l-24 -19 26 -12 c20 -9 32 -9 48 -1 26 14 27 27 2 41 -25
13 -25 13 -52 -9z"/>
<path d="M3292 5754 c-18 -13 -21 -19 -11 -30 6 -8 20 -14 30 -14 14 0 19 7
19 30 0 34 -6 36 -38 14z"/>
<path d="M2370 5733 c-82 -16 -101 -26 -82 -45 14 -14 132 -21 132 -8 0 5 14
17 31 25 25 13 28 19 18 31 -6 8 -14 13 -18 13 -3 -1 -40 -8 -81 -16z"/>
<path d="M4959 5728 c0 -2 -2 -122 -4 -268 -2 -146 -7 -446 -10 -668 -5 -359
-4 -403 10 -408 41 -16 42 -10 49 584 3 312 9 611 12 665 l7 97 -32 0 c-17 0
-31 -1 -32 -2z"/>
<path d="M3421 5694 c-20 -26 -19 -49 3 -57 27 -10 72 48 54 70 -16 20 -34 16
-57 -13z"/>
<path d="M3867 5692 c-21 -23 -21 -36 -3 -51 12 -10 19 -8 36 9 24 24 23 53
-1 58 -8 1 -23 -6 -32 -16z"/>
<path d="M6280 5703 c-8 -3 -28 -17 -43 -29 -31 -26 -57 -30 -89 -13 -17 9
-26 7 -47 -10 -14 -12 -36 -26 -48 -32 -12 -6 -24 -20 -26 -30 -3 -11 -21 -26
-41 -34 -54 -23 -73 -68 -60 -146 9 -54 8 -64 -9 -86 -13 -16 -26 -23 -38 -20
-12 3 -19 0 -19 -9 0 -10 10 -14 30 -12 17 1 30 6 30 10 0 4 6 7 13 6 9 -2 12
21 12 90 0 50 4 92 8 92 5 0 6 4 3 9 -14 22 29 31 165 35 86 2 155 9 171 16
31 14 42 38 32 65 -7 16 -18 17 -121 12 -70 -4 -113 -3 -113 3 0 6 26 10 58
10 49 0 66 5 100 29 22 16 43 34 47 40 7 12 7 12 -15 4z"/>
<path d="M3154 5675 c-16 -41 27 -60 50 -22 8 14 8 20 -4 27 -22 14 -40 12
-46 -5z"/>
<path d="M2640 5667 c0 -16 42 -57 58 -57 15 0 15 25 2 51 -12 22 -60 26 -60
6z"/>
<path d="M3750 5610 c-9 -16 -9 -25 -1 -33 16 -16 46 4 46 29 0 27 -31 29 -45
4z"/>
<path d="M3611 5601 c-23 -23 -18 -51 10 -51 27 0 45 38 26 57 -13 13 -17 13
-36 -6z"/>
<path d="M4640 5612 c0 -5 -11 -25 -24 -44 l-24 -36 42 -5 c47 -7 213 16 228
31 5 5 8 20 6 33 -3 23 -6 24 -115 27 -64 2 -113 -1 -113 -6z"/>
<path d="M2515 5586 c-26 -19 -11 -47 31 -58 39 -10 61 15 40 46 -17 26 -45
31 -71 12z"/>
<path d="M3031 5576 c-14 -15 -19 -26 -12 -30 17 -11 51 13 51 34 0 26 -12 25
-39 -4z"/>
<path d="M4515 5579 c-8 -25 0 -34 38 -43 32 -7 36 4 7 22 -11 7 -20 19 -20
27 0 22 -18 18 -25 -6z"/>
<path d="M2830 5575 c-10 -13 -10 -19 5 -35 21 -23 58 -26 74 -6 10 12 8 19
-8 35 -25 25 -54 27 -71 6z"/>
<path d="M5320 5584 c0 -16 44 -78 51 -73 4 2 15 -3 25 -12 47 -40 43 -26 -3
15 -29 26 -57 55 -63 64 -5 9 -10 12 -10 6z"/>
<path d="M3234 5565 c-10 -8 -29 -15 -41 -15 -14 0 -23 -6 -23 -15 0 -8 8 -15
17 -15 9 0 24 -7 34 -16 15 -14 21 -14 45 -2 33 16 49 40 41 62 -8 20 -47 21
-73 1z"/>
<path d="M2332 5558 c-17 -17 -15 -32 9 -62 23 -29 36 -26 50 11 16 42 -29 81
-59 51z"/>
<path d="M3482 5538 c-15 -15 -16 -45 -1 -54 6 -3 20 3 32 14 17 17 18 23 7
36 -15 19 -22 20 -38 4z"/>
<path d="M2720 5497 c0 -31 14 -57 31 -57 4 0 11 13 17 28 12 34 -1 62 -28 62
-16 0 -20 -7 -20 -33z"/>
<path d="M4366 5466 c-9 -23 -25 -40 -43 -47 -26 -10 -40 -9 -88 5 -15 5 -25
-2 -42 -29 -13 -19 -34 -37 -48 -41 -14 -3 -25 -10 -25 -16 0 -16 20 -48 31
-48 6 0 8 4 5 9 -3 5 10 19 30 30 20 12 38 30 41 39 4 16 16 18 81 18 l77 -1
15 42 c13 39 13 45 -2 59 -15 16 -18 14 -32 -20z"/>
<path d="M8748 5483 c6 -2 18 -2 25 0 6 3 1 5 -13 5 -14 0 -19 -2 -12 -5z"/>
<path d="M5605 5467 c-39 -13 -42 -16 -25 -28 12 -9 12 -10 -3 -5 -11 4 -29
-2 -43 -13 -16 -13 -20 -21 -12 -23 7 -3 18 2 24 10 12 17 94 26 94 11 0 -5 5
-9 10 -9 14 0 12 33 -2 52 -11 13 -19 14 -43 5z"/>
<path d="M8695 5470 c-3 -6 1 -7 9 -4 18 7 21 14 7 14 -6 0 -13 -4 -16 -10z"/>
<path d="M8830 5449 c19 -19 37 -33 39 -32 7 4 -32 44 -54 56 -11 5 -4 -5 15
-24z"/>
<path d="M8654 5435 c-9 -13 -14 -28 -12 -33 1 -5 10 6 19 24 19 40 16 44 -7
9z"/>
<path d="M2429 5423 c-8 -23 -7 -30 8 -40 22 -17 43 -13 57 9 8 13 6 22 -8 37
-26 28 -44 26 -57 -6z"/>
<path d="M3052 5438 c-19 -19 -14 -37 14 -50 23 -11 29 -10 46 11 10 13 17 29
15 35 -5 16 -60 19 -75 4z"/>
<path d="M5454 5431 c7 -11 46 -35 46 -28 0 3 -12 12 -26 22 -15 9 -23 12 -20
6z"/>
<path d="M3358 5423 c-10 -2 -18 -12 -18 -22 0 -25 -70 -98 -110 -114 -74 -31
-79 -31 -77 0 2 30 -17 40 -43 23 -12 -7 -13 -13 -3 -29 19 -30 -22 -62 -84
-66 -26 -1 -60 -5 -74 -9 -14 -4 -54 -2 -89 4 -56 10 -97 5 -60 -8 8 -3 27
-17 41 -32 24 -23 57 -31 44 -9 -4 5 8 6 25 2 17 -3 48 -1 68 5 20 6 56 13 79
15 l41 5 -20 -34 c-12 -21 -31 -36 -47 -40 -114 -24 -12 -23 119 2 41 7 92 15
113 16 33 2 45 10 79 51 52 62 77 61 94 -3 7 -25 12 -39 13 -32 3 37 34 -16
46 -80 3 -12 26 -43 52 -70 26 -26 53 -60 60 -75 14 -29 12 -4 -2 30 -6 13 -2
20 13 24 17 4 11 12 -41 57 -72 61 -96 110 -96 202 -1 46 5 73 24 110 33 64
32 76 -2 68 -16 -4 -32 -11 -37 -15 -18 -16 -54 -10 -61 11 -6 20 -14 22 -47
13z m57 -53 c-3 -5 -15 -10 -26 -10 -11 0 -17 5 -14 10 3 6 15 10 26 10 11 0
17 -4 14 -10z"/>
<path d="M2610 5405 c-17 -20 0 -61 29 -70 12 -3 21 -15 21 -26 0 -10 6 -19
14 -19 36 0 31 50 -10 99 -29 35 -36 37 -54 16z"/>
<path d="M7462 5395 c-6 -14 -16 -25 -22 -25 -5 0 -10 -4 -10 -10 0 -21 19 -9
39 25 11 19 17 35 12 35 -4 0 -13 -11 -19 -25z"/>
<path d="M8876 5375 c9 -37 -23 -103 -59 -121 -16 -9 -27 -18 -24 -21 3 -3 19
3 36 13 45 27 80 131 51 149 -7 4 -8 -3 -4 -20z"/>
<path d="M5646 5343 c-7 -64 -5 -163 4 -163 3 0 5 -12 2 -28 -6 -41 56 -102
104 -102 48 0 94 45 94 92 l0 33 -20 -32 c-24 -40 -63 -66 -88 -59 -10 4 -29
17 -42 31 -20 21 -24 39 -30 145 -5 67 -10 124 -13 126 -3 3 -8 -16 -11 -43z"/>
<path d="M7476 5373 c-6 -14 -5 -15 5 -6 7 7 10 15 7 18 -3 3 -9 -2 -12 -12z"/>
<path d="M8636 5335 c4 -56 57 -105 111 -104 l38 1 -40 8 c-45 9 -101 65 -108
109 -2 14 -3 8 -1 -14z"/>
<path d="M2836 5345 c-35 -53 -7 -80 50 -49 43 23 43 36 0 57 -34 16 -35 15
-50 -8z"/>
<path d="M7450 5280 c0 -19 3 -21 12 -12 9 9 9 15 0 24 -9 9 -12 7 -12 -12z"/>
<path d="M4183 5106 c-10 -14 -39 -36 -65 -49 -38 -20 -54 -23 -87 -17 -36 6
-44 4 -72 -21 -18 -16 -41 -31 -51 -35 -10 -3 -18 -8 -18 -12 0 -4 -14 -7 -30
-8 -17 -1 -33 -4 -36 -7 -5 -5 15 -47 55 -113 51 -85 109 -264 151 -467 8 -40
18 -62 33 -72 22 -14 238 -30 250 -19 3 3 1 16 -5 29 -9 21 -18 23 -99 27 -60
3 -94 9 -103 19 -8 8 -28 66 -44 129 -17 63 -37 138 -45 167 -14 49 -81 206
-114 266 -18 33 -20 29 43 64 32 17 72 29 115 33 75 8 133 43 142 85 5 31 3
31 -20 1z"/>
<path d="M2898 5108 c6 -6 18 -8 28 -6 14 3 12 5 -9 10 -19 3 -25 2 -19 -4z"/>
<path d="M8156 5036 c6 -16 71 -39 86 -30 17 11 7 23 -24 29 -18 4 -41 9 -50
11 -13 4 -16 1 -12 -10z"/>
<path d="M8495 4961 c-6 -11 9 -23 19 -14 9 9 7 23 -3 23 -6 0 -12 -4 -16 -9z"/>
<path d="M3728 4953 c12 -2 32 -2 45 0 12 2 2 4 -23 4 -25 0 -35 -2 -22 -4z"/>
<path d="M9019 4910 c-9 -49 28 -90 81 -90 29 0 60 36 59 68 l-1 27 -8 -28
c-12 -39 -29 -57 -54 -57 -33 1 -58 26 -66 67 -6 33 -7 35 -11 13z"/>
<path d="M8030 4747 c0 -3 12 -12 26 -22 15 -9 23 -12 20 -6 -7 11 -46 35 -46
28z"/>
<path d="M1410 4710 c-8 -5 -12 -10 -7 -10 4 0 -1 -12 -10 -27 l-18 -27 43 24
c41 23 50 42 21 47 -8 2 -21 -1 -29 -7z"/>
<path d="M8098 4649 c2 -16 8 -29 12 -29 9 0 1 48 -9 55 -4 2 -5 -9 -3 -26z"/>
<path d="M1355 4640 c-8 -13 -4 -187 5 -235 5 -27 8 7 8 103 -1 78 -2 142 -4
142 -1 0 -5 -4 -9 -10z"/>
<path d="M925 4428 c-59 -21 -132 -76 -169 -127 -45 -61 -85 -169 -86 -228 0
-43 0 -43 -64 -72 -71 -32 -132 -82 -160 -133 l-18 -33 32 38 c41 48 135 112
189 129 38 12 42 16 40 43 -1 17 1 37 4 45 11 31 29 106 28 123 0 9 4 15 8 13
4 -3 7 5 7 17 -1 12 4 21 11 20 6 -1 17 5 25 15 12 15 11 16 -4 3 -24 -18 -22
-2 2 27 11 14 24 20 31 16 7 -4 9 -3 6 3 -8 12 17 36 26 26 4 -3 7 -1 7 5 0 7
7 12 15 12 9 0 18 7 21 15 4 8 10 12 15 9 5 -3 9 0 9 6 0 6 5 8 10 5 6 -3 10
-1 10 5 0 6 4 9 9 6 4 -3 17 1 27 9 22 17 11 18 -31 3z"/>
<path d="M5719 4373 c-13 -16 -12 -17 4 -4 9 7 17 15 17 17 0 8 -8 3 -21 -13z"/>
<path d="M5596 4353 c-4 -9 -1 -20 5 -24 15 -9 64 8 80 27 10 12 4 14 -34 14
-33 0 -47 -5 -51 -17z"/>
<path d="M4696 4330 c-26 -22 -27 -24 -9 -31 10 -4 55 -3 98 2 44 4 143 9 220
9 152 2 246 11 229 22 -6 4 -123 10 -260 14 l-249 7 -29 -23z"/>
<path d="M5457 4243 c-4 -3 -7 -12 -7 -20 0 -11 6 -11 30 2 17 9 30 18 30 20
0 8 -46 6 -53 -2z"/>
<path d="M4371 4194 c22 -23 60 -26 92 -8 17 10 16 12 -10 22 -15 6 -45 11
-65 9 l-37 -2 20 -21z"/>
<path d="M8770 4200 c-9 -6 6 -7 45 -3 33 3 62 7 64 9 10 9 -95 3 -109 -6z"/>
<path d="M9010 4166 c0 -2 7 -7 16 -10 8 -3 12 -2 9 4 -6 10 -25 14 -25 6z"/>
<path d="M9125 4082 c27 -29 51 -52 53 -52 8 0 -44 57 -73 79 -16 14 -8 1 20
-27z"/>
<path d="M4950 4081 c0 -5 7 -14 15 -21 12 -10 15 -10 15 3 0 8 -7 17 -15 21
-8 3 -15 2 -15 -3z"/>
<path d="M9289 3819 c-9 -6 7 -9 46 -9 69 0 164 -23 176 -42 5 -7 9 -9 9 -4 0
4 17 -9 38 -31 66 -69 91 -101 85 -107 -4 -3 -1 -6 6 -6 7 0 9 -4 6 -10 -3 -5
0 -29 6 -52 18 -61 17 -73 -6 -130 -5 -13 -2 -18 9 -18 9 0 34 -11 56 -25 29
-19 38 -29 33 -42 -28 -75 -100 -113 -219 -113 -97 0 -144 8 -144 25 0 7 -7
19 -17 26 -15 13 -15 12 -5 -8 7 -12 12 -37 12 -56 0 -68 -95 -112 -193 -90
-38 8 -48 5 -114 -30 -135 -72 -288 -84 -418 -32 l-63 26 -34 -21 c-34 -21
-148 -29 -148 -11 0 41 -121 111 -140 81 -6 -9 -9 -9 -13 1 -4 10 -6 9 -6 -3
-1 -13 5 -16 32 -12 71 12 127 -43 127 -123 0 -37 4 -44 30 -58 34 -18 49 -58
29 -81 -39 -47 -179 -61 -286 -29 -48 14 -55 14 -77 0 -31 -20 -117 -30 -153
-17 -26 9 -32 6 -61 -24 -72 -76 -198 -121 -312 -111 -68 6 -100 16 -160 53
-29 17 -46 20 -97 16 -35 -2 -63 -7 -63 -11 0 -3 9 -20 19 -37 15 -25 18 -40
11 -69 -18 -80 -106 -125 -237 -120 -94 3 -155 30 -182 80 -16 30 -16 30 -56
17 -24 -8 -66 -12 -105 -9 -55 3 -73 0 -115 -21 -41 -21 -65 -25 -135 -26
-105 -1 -168 19 -250 80 -62 45 -91 50 -129 20 -16 -13 -129 -14 -188 -2 -35
7 -43 6 -43 -6 0 -26 -65 -78 -126 -99 -96 -34 -240 -14 -301 42 l-21 21 -57
-21 c-67 -25 -162 -28 -227 -5 -43 14 -47 14 -87 -7 -36 -19 -54 -21 -131 -17
-95 4 -132 20 -156 66 -8 16 -13 19 -22 10 -19 -19 -14 -46 12 -64 31 -20 120
-44 164 -44 18 0 42 -4 52 -10 26 -14 85 -19 330 -32 314 -15 510 -15 510 2 0
12 171 42 240 41 75 0 104 -4 220 -26 47 -9 139 -20 205 -25 66 -6 170 -14
231 -20 118 -11 537 -14 547 -4 3 3 56 7 119 9 146 4 203 12 258 38 42 20 45
25 48 64 4 56 13 58 206 50 248 -10 329 9 351 83 l10 33 91 -6 c51 -3 102 -11
114 -17 18 -9 84 -9 296 0 151 7 286 9 300 6 l27 -7 -27 31 c-14 17 -26 35
-26 40 0 5 -15 6 -33 3 -26 -4 -40 1 -65 22 -29 24 -32 25 -32 7 0 -16 -9 -20
-56 -26 -32 -4 -67 -15 -82 -26 -15 -12 -40 -20 -63 -20 -20 0 -39 -4 -41 -9
-1 -5 -24 -7 -50 -4 -41 5 -45 7 -32 20 7 8 14 21 14 28 0 23 35 35 105 35 85
0 152 32 115 55 -14 9 -12 31 3 47 7 7 16 21 20 31 3 9 16 17 27 17 12 0 19
-4 16 -8 -8 -13 246 24 289 42 22 9 49 25 60 35 12 11 44 21 80 25 77 8 149
43 153 74 3 21 8 22 92 22 80 0 88 2 83 18 -2 10 2 23 9 29 16 12 98 33 131
33 30 0 57 29 56 61 -1 17 -3 19 -6 7 -2 -10 -9 -18 -15 -18 -5 0 -8 -7 -5
-14 4 -10 1 -13 -9 -9 -11 4 -12 9 -5 16 6 6 11 19 11 29 0 10 5 18 10 18 19
0 -50 90 -73 95 -21 6 -22 12 -22 93 0 75 -4 94 -27 137 -14 28 -39 62 -55 77
-42 40 -136 86 -190 93 -27 3 -62 7 -79 9 -17 3 -37 0 -45 -5z m-859 -1040 c0
-5 -4 -7 -10 -4 -5 3 -10 -3 -10 -15 0 -20 -3 -21 -42 -15 -24 4 -45 10 -48
14 -3 4 -17 6 -32 6 -16 -1 -28 2 -28 7 0 4 33 9 73 11 39 1 78 4 85 5 6 1 12
-3 12 -9z m-237 -16 c-7 -2 -13 -13 -13 -24 0 -21 -15 -25 -26 -7 -7 11 22 39
40 37 6 0 5 -3 -1 -6z"/>
<path d="M396 3738 c-8 -32 -7 -58 2 -58 4 0 8 18 10 40 3 44 -2 52 -12 18z"/>
<path d="M400 3638 c0 -10 -16 -20 -45 -27 -25 -6 -45 -14 -45 -17 0 -3 8 -3
18 0 9 3 33 6 54 8 30 2 35 5 32 21 -4 25 -14 35 -14 15z"/>
<path d="M146 3429 c-14 -17 -26 -39 -26 -49 0 -27 47 -60 84 -59 30 2 30 2 4
6 -15 2 -39 18 -52 34 -25 29 -25 31 -9 56 9 14 26 29 37 33 16 7 17 9 4 9 -9
1 -28 -13 -42 -30z"/>
<path d="M308 3303 c6 -2 18 -2 25 0 6 3 1 5 -13 5 -14 0 -19 -2 -12 -5z"/>
<path d="M369 3299 c-13 -4 -17 -7 -8 -8 9 -1 20 -16 27 -37 10 -33 9 -36 -16
-45 -15 -5 -34 -12 -42 -15 -10 -4 -1 -11 25 -20 52 -19 217 -54 227 -48 4 3
26 0 50 -6 31 -9 85 -9 212 0 163 10 173 10 210 -9 57 -30 173 -52 246 -49
l65 3 -57 28 c-31 16 -62 34 -67 41 -8 10 -23 10 -59 3 -95 -20 -182 24 -182
91 l0 30 -47 -22 c-105 -50 -262 -59 -398 -22 -65 17 -103 35 -130 61 -25 23
-38 29 -56 24z m40 -41 c6 -18 7 -28 2 -23 -10 12 -25 55 -18 55 3 0 10 -15
16 -32z"/>
<path d="M3910 3160 c-9 -6 -10 -10 -3 -10 6 0 15 5 18 10 8 12 4 12 -15 0z"/>
<path d="M563 3063 c26 -2 67 -2 90 0 23 2 2 3 -48 3 -49 0 -68 -1 -42 -3z"/>
<path d="M708 3063 c6 -2 18 -2 25 0 6 3 1 5 -13 5 -14 0 -19 -2 -12 -5z"/>
<path d="M9649 3052 c12 -22 51 -49 50 -35 0 4 -14 19 -31 32 -29 24 -30 24
-19 3z"/>
<path d="M9215 3030 c-3 -5 -1 -10 4 -10 6 0 11 5 11 10 0 6 -2 10 -4 10 -3 0
-8 -4 -11 -10z"/>
<path d="M1507 2959 c-9 -35 -69 -74 -143 -93 -90 -23 -127 -19 -215 23 -25
12 -36 14 -36 5 0 -18 60 -43 138 -55 77 -13 169 0 201 28 10 9 24 13 33 10
25 -10 50 37 38 76 l-9 32 -7 -26z"/>
<path d="M9370 2970 c0 -13 38 -19 68 -10 l27 8 -30 2 c-16 1 -38 3 -47 5 -10
2 -18 0 -18 -5z"/>
<path d="M9483 2963 c9 -2 23 -2 30 0 6 3 -1 5 -18 5 -16 0 -22 -2 -12 -5z"/>
<path d="M9538 2963 c7 -3 16 -2 19 1 4 3 -2 6 -13 5 -11 0 -14 -3 -6 -6z"/>
<path d="M6910 2860 c0 -5 5 -20 11 -34 11 -23 13 -24 35 -9 30 20 30 27 -1
41 -31 14 -45 15 -45 2z"/>
<path d="M654 2832 c20 -23 141 -66 162 -58 7 3 16 1 19 -3 13 -22 525 -24
525 -2 0 4 -116 8 -257 9 -301 2 -323 3 -323 12 0 4 -19 10 -42 13 -22 3 -55
16 -72 28 -30 21 -30 21 -12 1z"/>
<path d="M9638 2810 c-9 -11 -57 -31 -105 -45 -119 -35 -117 -35 -110 -42 11
-10 173 28 206 48 18 11 31 27 31 39 0 24 0 24 -22 0z"/>
<path d="M1518 2793 c7 -3 16 -2 19 1 4 3 -2 6 -13 5 -11 0 -14 -3 -6 -6z"/>
<path d="M9305 2699 l-70 -19 54 6 c29 3 68 11 85 19 43 19 14 16 -69 -6z"/>
<path d="M9128 2683 c6 -2 18 -2 25 0 6 3 1 5 -13 5 -14 0 -19 -2 -12 -5z"/>
<path d="M9170 2680 c0 -5 12 -10 28 -9 24 0 25 1 7 9 -27 12 -35 12 -35 0z"/>
<path d="M3665 2670 c44 -11 67 -11 60 0 -3 6 -25 9 -48 9 -40 -1 -40 -2 -12
-9z"/>
<path d="M3768 2673 c6 -2 18 -2 25 0 6 3 1 5 -13 5 -14 0 -19 -2 -12 -5z"/>
<path d="M1861 2643 c7 -38 -4 -63 -35 -82 -18 -12 -43 -21 -55 -21 -11 0 -21
-3 -21 -7 0 -5 -37 -7 -82 -6 l-83 2 50 -12 50 -13 -49 -7 c-98 -14 -243 -8
-319 14 -39 11 -76 21 -82 22 -5 2 -17 6 -25 11 -8 5 -6 -1 6 -13 85 -90 633
-73 699 22 20 28 10 35 -16 11 -22 -19 -22 -19 -10 3 14 28 16 75 1 53 -8 -13
-10 -13 -10 2 0 9 -5 20 -10 23 -6 4 -10 3 -9 -2z"/>
<path d="M2752 2570 c-34 -32 -27 -49 31 -74 70 -31 185 -54 337 -66 150 -12
710 -12 710 1 0 4 6 6 13 3 11 -4 219 19 282 32 86 17 118 25 134 33 10 6 44
12 75 13 66 4 76 18 11 18 -40 0 -45 3 -45 23 -1 18 -2 19 -10 6 -15 -25 -105
-60 -199 -76 -240 -40 -763 -54 -987 -26 -77 9 -158 17 -181 18 -22 0 -39 3
-37 7 2 3 -10 10 -28 13 -69 15 -110 53 -87 81 17 21 6 17 -19 -6z"/>
<path d="M1492 2554 c10 -10 20 -16 22 -13 3 3 -5 11 -17 18 -21 13 -21 12 -5
-5z"/>
<path d="M1543 2533 c9 -2 23 -2 30 0 6 3 -1 5 -18 5 -16 0 -22 -2 -12 -5z"/>
<path d="M8860 2495 c-23 -28 -75 -45 -179 -61 -128 -18 -161 -25 -161 -33 0
-3 47 -3 105 1 162 11 275 45 275 84 0 8 -4 13 -9 10 -5 -4 -11 -1 -13 5 -2 7
-9 4 -18 -6z"/>
<path d="M5945 2470 c3 -6 -1 -7 -9 -4 -9 3 -16 2 -16 -4 0 -15 277 -53 390
-53 19 0 121 -2 225 -4 108 -3 181 -1 170 4 -23 9 -204 22 -373 26 -76 2 -117
7 -129 16 -9 8 -14 9 -11 4 10 -16 -99 -16 -147 0 -60 19 -107 26 -100 15z"/>
<path d="M8380 2450 c0 -5 10 -10 23 -10 18 0 19 2 7 10 -19 13 -30 13 -30 0z"/>
<path d="M2180 2421 c0 -11 74 -41 100 -41 11 0 20 5 20 10 0 6 -8 10 -19 10
-10 0 -37 7 -60 15 -22 8 -41 10 -41 6z"/>
<path d="M2475 2414 c-22 -8 -66 -17 -98 -21 -32 -3 -60 -10 -64 -16 -9 -15
133 0 167 18 16 8 32 19 35 25 8 12 9 12 -40 -6z"/>
<path d="M8530 2363 c0 -9 -8 -25 -17 -36 -17 -19 -17 -20 5 -8 14 7 22 21 22
36 0 14 -2 25 -5 25 -3 0 -5 -8 -5 -17z"/>
<path d="M8287 2339 c12 -12 24 -21 27 -18 2 2 -8 13 -22 23 l-27 19 22 -24z"/>
<path d="M7998 2273 c12 -2 30 -2 40 0 9 3 -1 5 -23 4 -22 0 -30 -2 -17 -4z"/>
<path d="M6247 2209 c7 -7 15 -10 18 -7 3 3 -2 9 -12 12 -14 6 -15 5 -6 -5z"/>
<path d="M6099 2176 c32 -38 240 -59 351 -35 78 17 52 22 -45 10 -95 -13 -226
-1 -279 25 -36 18 -41 18 -27 0z"/>
<path d="M6338 2183 c6 -2 18 -2 25 0 6 3 1 5 -13 5 -14 0 -19 -2 -12 -5z"/>
</g>
</svg>
